<?xml version="1.0" encoding="iso-8859-1"?>
<!-- Generator: Adobe Illustrator 19.0.0, SVG Export Plug-In . SVG Version: 6.00 Build 0)  -->
<svg version="1.1" id="Layer_1" xmlns="http://www.w3.org/2000/svg" xmlns:xlink="http://www.w3.org/1999/xlink" x="0px" y="0px"
	 viewBox="0 0 512 512" style="enable-background:new 0 0 512 512;" xml:space="preserve">
<path style="fill:#3AB394;" d="M256,512L256,512C115.2,512,0,396.8,0,256l0,0C0,115.2,115.2,0,256,0l0,0c140.8,0,256,115.2,256,256
	l0,0C512,396.8,396.8,512,256,512z"/>
<path style="fill:#00875D;" d="M512,256L512,256c0-17.98-1.9-35.528-5.472-52.484L300.912,93.508h-65.6
	c-0.788-0.068-30.212-7.364-27.624,21.42c0.124,1.348,10.476,4.332,8.636,9.852c-15.492,46.4-41.432,89.32-41.432,89.32
	l-2.764,105.624v85.584l72.636,106.404C248.492,511.876,252.232,512,256,512l0,0C396.8,512,512,396.8,512,256z"/>
<g>
	<g>
		<path style="fill:#F7BE15;" d="M327.98,201.576c-8.396-14.004-27.008-66.5-33.728-70.876l-0.488-9.964h-78.116l-0.488,9.964
			c-6.72,4.38-25.332,56.872-33.728,70.876c-5.212,8.692-7.94,18.452-7.94,28.388v166.912c0,11.82,10.384,21.404,23.188,21.404
			h20.864h74.332h20.86c12.808,0,23.188-9.584,23.188-21.404V229.964C335.92,220.028,333.192,210.268,327.98,201.576"/>
		<path style="fill:#474341;" d="M312.732,421.448H196.676c-14.528,0-26.356-11.024-26.356-24.572V229.964
			c0-10.48,2.9-20.856,8.392-30.02c3.388-5.656,8.804-18.524,14.048-30.968c9.712-23.072,15.196-35.444,19.296-39.756l0.424-8.648
			c0.08-1.684,1.476-3.008,3.164-3.008h78.116c1.688,0,3.08,1.324,3.16,3.008l0.424,8.648c4.1,4.312,9.584,16.688,19.296,39.756
			c5.244,12.444,10.66,25.312,14.048,30.968c5.492,9.16,8.392,19.54,8.392,30.02v166.908
			C339.084,410.42,327.264,421.448,312.732,421.448 M218.66,123.9l-0.34,6.952c-0.052,1.012-0.584,1.94-1.436,2.492
			c-3.176,2.208-12.268,23.804-18.288,38.092c-5.568,13.228-10.828,25.724-14.456,31.76c-4.9,8.18-7.484,17.436-7.484,26.764
			v166.908c0,10.056,8.98,18.24,20.02,18.24h116.056c11.04,0,20.02-8.184,20.02-18.24V229.964c0-9.332-2.588-18.584-7.484-26.764
			c-3.624-6.036-8.884-18.532-14.456-31.76c-6.02-14.288-15.108-35.884-18.292-38.096c-0.804-0.556-1.384-1.512-1.428-2.488
			l-0.344-6.952H218.66V123.9z"/>
		<path style="fill:#F4EDDD;" d="M332.52,340.552H176.736c0,0-4.116-120.836,1.656-124.188c3.42-1.988,151.852-2.248,151.852-2.248
			c3.164,6.528,2.276,18.068,2.276,18.068L332.52,340.552L332.52,340.552z"/>
		<path style="fill:#DFDEDE;" d="M297.916,120.416h-86.424c-2.064,0-3.752-1.688-3.752-3.752v-15.372
			c0-2.064,1.688-3.752,3.752-3.752h86.424c2.064,0,3.752,1.692,3.752,3.752v15.372C301.668,118.728,299.98,120.416,297.916,120.416
			"/>
		<g>
			<path style="fill:#474341;" d="M295.056,123.584h-80.7c-5.388,0-9.78-4.388-9.78-9.78v-9.652c0-5.392,4.388-9.78,9.78-9.78h80.7
				c5.388,0,9.78,4.388,9.78,9.78v9.652C304.832,119.196,300.444,123.584,295.056,123.584 M214.356,100.708
				c-1.9,0-3.448,1.544-3.448,3.448v9.652c0,1.9,1.544,3.448,3.448,3.448h80.7c1.9,0,3.448-1.544,3.448-3.448v-9.652
				c0-1.904-1.544-3.448-3.448-3.448H214.356z"/>
			<path style="fill:#474341;" d="M226.144,114.584c-1.228,0-2.216-0.992-2.216-2.216v-6.78c0-1.228,0.988-2.216,2.216-2.216
				s2.216,0.992,2.216,2.216v6.78C228.36,113.596,227.372,114.584,226.144,114.584"/>
			<path style="fill:#474341;" d="M245.184,114.584c-1.228,0-2.216-0.992-2.216-2.216v-6.78c0-1.228,0.988-2.216,2.216-2.216
				s2.216,0.992,2.216,2.216v6.78C247.396,113.596,246.408,114.584,245.184,114.584"/>
			<path style="fill:#474341;" d="M264.228,114.584c-1.228,0-2.216-0.992-2.216-2.216v-6.78c0-1.228,0.988-2.216,2.216-2.216
				s2.216,0.992,2.216,2.216v6.78C266.44,113.596,265.452,114.584,264.228,114.584"/>
			<path style="fill:#474341;" d="M283.264,114.584c-1.228,0-2.216-0.992-2.216-2.216v-6.78c0-1.228,0.988-2.216,2.216-2.216
				s2.216,0.992,2.216,2.216v6.78C285.48,113.596,284.492,114.584,283.264,114.584"/>
			<path style="fill:#474341;" d="M311.624,216.336H175.072c-1.228,0-2.216-0.992-2.216-2.216c0-1.228,0.992-2.216,2.216-2.216
				h136.552c1.228,0,2.216,0.992,2.216,2.216C313.84,215.344,312.852,216.336,311.624,216.336"/>
			<path style="fill:#474341;" d="M334.828,342.768H192.92c-1.224,0-2.216-0.992-2.216-2.216c0-1.228,0.992-2.216,2.216-2.216
				h141.908c1.228,0,2.216,0.992,2.216,2.216S336.056,342.768,334.828,342.768"/>
			<path style="fill:#474341;" d="M229.068,133.116c-1.216,0-2.208-0.98-2.216-2.204c-0.012-1.22,0.976-2.22,2.204-2.228
				l38.96-0.236h0.016c1.216,0,2.208,0.984,2.216,2.204s-0.98,2.22-2.204,2.228l-38.964,0.236H229.068z"/>
			<path style="fill:#474341;" d="M200.956,204.892c-0.272,0-0.556-0.052-0.828-0.164c-1.136-0.456-1.684-1.748-1.228-2.88
				l13.072-32.396c0.46-1.132,1.752-1.684,2.884-1.228c1.132,0.46,1.684,1.752,1.224,2.884l-13.072,32.396
				C202.66,204.368,201.832,204.892,200.956,204.892"/>
			<path style="fill:#474341;" d="M217.464,164.868c-0.272,0-0.556-0.052-0.828-0.164c-1.136-0.456-1.684-1.748-1.228-2.88
				c0.316-0.784,0.444-1.16,0.628-1.68c0.412-1.172,1.048-3.012,4.284-11.032c0.464-1.136,1.752-1.684,2.884-1.228
				c1.136,0.46,1.684,1.752,1.228,2.884c-3.176,7.88-3.808,9.676-4.208,10.836c-0.2,0.576-0.348,1-0.7,1.876
				C219.172,164.344,218.34,164.868,217.464,164.868"/>
			<path style="fill:#474341;" d="M193.816,406.732c-1.228,0-2.216-0.992-2.216-2.216v-17.04c0-1.228,0.988-2.216,2.216-2.216
				s2.216,0.992,2.216,2.216v17.04C196.032,405.74,195.044,406.732,193.816,406.732"/>
			<path style="fill:#474341;" d="M193.816,380.68c-1.228,0-2.216-0.992-2.216-2.216v-28.296c0-1.228,0.988-2.216,2.216-2.216
				s2.216,0.988,2.216,2.216v28.296C196.032,379.688,195.044,380.68,193.816,380.68"/>
			<path style="fill:#474341;" d="M277.276,367.396c-0.812,0-1.596-0.448-1.984-1.228c-0.544-1.096-0.1-2.424,0.992-2.976
				l29.724-14.824c1.096-0.528,2.424-0.104,2.976,0.992c0.544,1.096,0.1,2.424-0.996,2.976l-29.72,14.828
				C277.948,367.324,277.612,367.396,277.276,367.396"/>
			<path style="fill:#474341;" d="M244.316,383.836c-0.812,0-1.596-0.448-1.984-1.228c-0.544-1.096-0.1-2.424,0.992-2.976
				l24.896-12.416c1.088-0.532,2.424-0.104,2.976,0.996c0.544,1.096,0.1,2.424-0.996,2.972l-24.896,12.42
				C244.988,383.764,244.652,383.836,244.316,383.836"/>
			<path style="fill:#474341;" d="M272.008,389.476c-0.792,0-1.556-0.428-1.96-1.18c-0.572-1.084-0.164-2.42,0.92-2.996
				l38.68-20.524c1.076-0.572,2.42-0.168,2.996,0.92c0.572,1.084,0.16,2.42-0.924,2.996l-38.676,20.524
				C272.716,389.392,272.36,389.476,272.008,389.476"/>
			<path style="fill:#474341;" d="M246.156,403.188c-0.792,0-1.56-0.428-1.96-1.18c-0.572-1.084-0.164-2.42,0.92-2.996l16.732-8.876
				c1.072-0.572,2.416-0.164,2.996,0.92c0.572,1.084,0.164,2.424-0.92,2.996l-16.728,8.876
				C246.864,403.104,246.508,403.188,246.156,403.188"/>
		</g>
		<path style="fill:#EC7E13;" d="M294.184,271.524c0,26.412-21.792,47.824-48.676,47.824s-48.676-21.412-48.676-47.824
			s21.792-47.824,48.676-47.824S294.184,245.112,294.184,271.524"/>
		<g>
			<path style="fill:#474341;" d="M237.012,319.46c-0.072,0-0.136-0.004-0.204-0.008c-24.244-2.18-39.22-17.416-41.076-41.804
				c-1.572-20.692,5.932-37.452,21.128-47.204c16.544-10.612,40.144-11.352,57.392-1.8c12.864,7.124,19.86,18.664,19.704,32.5
				c-0.012,1.228-1.012,2.208-2.232,2.208H291.7c-1.228-0.012-2.22-1.024-2.208-2.256c0.136-12.116-6.048-22.256-17.404-28.544
				c-15.876-8.784-37.584-8.112-52.816,1.652c-9.724,6.24-20.932,18.788-19.08,43.108c1.696,22.316,14.84,35.7,37.02,37.696
				c1.228,0.108,2.132,1.196,2.024,2.424C239.128,318.592,238.156,319.46,237.012,319.46"/>
			<path style="fill:#474341;" d="M217.284,268.252c1.628,0,1.636-2.536,0-2.536C215.652,265.716,215.648,268.252,217.284,268.252"
				/>
			<path style="fill:#474341;" d="M214.676,286.86c1.628,0,1.636-2.536,0-2.536C213.048,284.328,213.044,286.86,214.676,286.86"/>
			<path style="fill:#474341;" d="M224.728,292.816c1.628,0,1.636-2.536,0-2.536C223.096,290.284,223.092,292.816,224.728,292.816"
				/>
			<path style="fill:#474341;" d="M232.444,282.496c1.628,0,1.636-2.536,0-2.536C230.816,279.96,230.808,282.496,232.444,282.496"/>
			<path style="fill:#474341;" d="M249.708,241.488c3.828,3.752-1.06,9.172-5.348,6.136c-2.352-1.664-4.584,2.208-2.256,3.856
				c3.556,2.516,8.812,1.912,11.596-1.484c2.82-3.44,2.272-8.624-0.836-11.668C250.816,236.316,247.656,239.468,249.708,241.488"/>
		</g>
		<path style="fill:#EC7E13;" d="M306.024,258.36l-72.376,42.956c12.844,21.3,39.244,29.008,59.144,17.2
			C312.692,306.704,318.564,279.836,306.024,258.36"/>
		<path style="fill:#474341;" d="M272.58,326.244c-15.792,0-31.68-8.576-40.84-23.776l-1.164-1.924l76.244-45.252l1.132,1.94
			c13.124,22.472,6.84,50.824-14.02,63.204C287.3,324.372,279.944,326.244,272.58,326.244 M236.768,302.064
			c12.576,18.748,36.728,25.292,54.888,14.532c18.148-10.776,23.956-35.124,13.524-55.14L236.768,302.064z"/>
		<path style="fill:#F7BE15;" d="M299.756,262.08l-59.836,35.516c13.408,14.608,32.764,19.78,47.136,11.248
			C301.424,300.316,306.156,280.848,299.756,262.08"/>
		<g>
			<path style="fill:#474341;" d="M271.688,315.184c-11.544,0-23.816-5.624-33.416-16.08c-0.452-0.492-0.66-1.168-0.568-1.836
				c0.1-0.664,0.496-1.252,1.076-1.592l59.836-35.516c0.58-0.348,1.284-0.42,1.912-0.172c0.632,0.232,1.124,0.736,1.344,1.372
				c6.892,20.216,1.268,40.532-13.68,49.404C283.176,313.744,277.524,315.184,271.688,315.184 M243.488,298.076
				c12.836,12.576,29.948,16.252,42.432,8.848c12.476-7.404,17.44-24.196,12.548-41.484L243.488,298.076z"/>
			<path style="fill:#474341;" d="M285.904,310.524c-0.756,0-1.492-0.384-1.912-1.084l-16.876-27.976
				c-0.64-1.056-0.3-2.424,0.756-3.06c1.044-0.632,2.424-0.3,3.064,0.756l16.876,27.976c0.636,1.056,0.3,2.424-0.76,3.064
				C286.696,310.42,286.3,310.524,285.904,310.524"/>
			<path style="fill:#474341;" d="M300.084,288.26c-0.136,0-0.272-0.012-0.412-0.036l-31.048-5.708
				c-1.212-0.224-2.016-1.388-1.796-2.604c0.228-1.212,1.36-2,2.604-1.796l31.048,5.708c1.212,0.228,2.016,1.388,1.796,2.604
				C302.076,287.504,301.14,288.26,300.084,288.26"/>
			<path style="fill:#474341;" d="M263.4,312.044c-0.156,0-0.32-0.016-0.48-0.052c-1.204-0.268-1.968-1.456-1.704-2.66l5.992-27.192
				c0.268-1.2,1.44-1.96,2.66-1.704c1.204,0.268,1.968,1.456,1.7,2.66l-5.988,27.196C265.352,311.332,264.432,312.044,263.4,312.044
				"/>
		</g>
	</g>
</g>
<g>
</g>
<g>
</g>
<g>
</g>
<g>
</g>
<g>
</g>
<g>
</g>
<g>
</g>
<g>
</g>
<g>
</g>
<g>
</g>
<g>
</g>
<g>
</g>
<g>
</g>
<g>
</g>
<g>
</g>
</svg>
